<svg width="136" height="50" viewBox="0 0 136 50" fill="none" xmlns="http://www.w3.org/2000/svg">
<g clip-path="url(#clip0_568_10978)">
<path d="M21.1429 17H17.3609L12 33H15.7819L21.1429 17Z" fill="#00FDFF"/>
<path d="M28 17H26.2096L21.1429 33H22.9333L28 17Z" fill="#FF4654"/>
<g filter="url(#filter0_d_568_10978)">
<path d="M0 38.5507V11.4493C0 3.81643 3.73126 0 11.1938 0H27.7349C35.245 0 39 3.81643 39 11.4493V38.5507C39 46.1836 35.245 50 27.7349 50H11.1938C3.73126 50 0 46.1836 0 38.5507ZM7.2724 39.2029C7.2724 41.9565 8.60329 43.3333 11.2651 43.3333H27.6636C30.3729 43.3333 31.7276 41.9565 31.7276 39.2029V10.7971C31.7276 8.04348 30.3729 6.66667 27.6636 6.66667H11.2651C8.60329 6.66667 7.2724 8.04348 7.2724 10.7971V39.2029Z" fill="#00FDFF"/>
</g>
</g>
<path d="M57.64 29.451V16.779C57.64 13.413 59.323 11.73 62.689 11.73H70.411C73.777 11.73 75.46 13.413 75.46 16.779V29.451C75.46 32.817 73.777 34.5 70.411 34.5H62.689C59.323 34.5 57.64 32.817 57.64 29.451ZM60.412 29.748C60.412 31.244 61.16 31.992 62.656 31.992H70.444C71.94 31.992 72.688 31.244 72.688 29.748V16.482C72.688 14.986 71.94 14.238 70.444 14.238H62.656C61.16 14.238 60.412 14.986 60.412 16.482V29.748ZM79.4264 17.802L79.7234 17.34H82.0004L87.0164 32.19H87.6764L92.6924 17.34H94.9694L95.2664 17.802L87.2144 41.1H84.9374L84.6404 40.638L86.8514 34.5H85.2014L79.4264 17.802ZM99.079 29.55V17.34H101.719V29.88C101.719 31.42 102.489 32.19 104.029 32.19H110.629V17.34H113.269V34.5H104.029C100.729 34.5 99.079 32.85 99.079 29.55ZM119.207 34.5V17.34H128.447C131.747 17.34 133.397 18.99 133.397 22.29V34.5H130.757V21.96C130.757 20.42 129.987 19.65 128.447 19.65H121.847V34.5H119.207Z" fill="white"/>
<defs>
<filter id="filter0_d_568_10978" x="-56" y="-56" width="151" height="162" filterUnits="userSpaceOnUse" color-interpolation-filters="sRGB">
<feFlood flood-opacity="0" result="BackgroundImageFix"/>
<feColorMatrix in="SourceAlpha" type="matrix" values="0 0 0 0 0 0 0 0 0 0 0 0 0 0 0 0 0 0 127 0" result="hardAlpha"/>
<feOffset/>
<feGaussianBlur stdDeviation="28"/>
<feComposite in2="hardAlpha" operator="out"/>
<feColorMatrix type="matrix" values="0 0 0 0 0 0 0 0 0 0.992157 0 0 0 0 1 0 0 0 0.6 0"/>
<feBlend mode="normal" in2="BackgroundImageFix" result="effect1_dropShadow_568_10978"/>
<feBlend mode="normal" in="SourceGraphic" in2="effect1_dropShadow_568_10978" result="shape"/>
</filter>
<clipPath id="clip0_568_10978">
<rect width="39" height="50" fill="white"/>
</clipPath>
</defs>
</svg>
